<mxfile host="Electron" modified="2023-12-15T07:24:28.630Z" agent="Mozilla/5.0 (Windows NT 10.0; Win64; x64) AppleWebKit/537.36 (KHTML, like Gecko) draw.io/22.1.2 Chrome/114.0.5735.289 Electron/25.9.4 Safari/537.36" etag="j9K-oOK8EXg_xGAYbOCq" version="22.1.2" type="device" pages="5">
  <diagram id="C5RBs43oDa-KdzZeNtuy" name="desc">
    <mxGraphModel dx="1707" dy="524" grid="1" gridSize="10" guides="1" tooltips="1" connect="1" arrows="1" fold="1" page="1" pageScale="1" pageWidth="827" pageHeight="1169" math="0" shadow="1">
      <root>
        <mxCell id="WIyWlLk6GJQsqaUBKTNV-0" />
        <mxCell id="WIyWlLk6GJQsqaUBKTNV-1" parent="WIyWlLk6GJQsqaUBKTNV-0" />
        <mxCell id="NoEIy4mHG-ah0V-eb-e3-1" value="" style="shape=image;verticalLabelPosition=bottom;labelBackgroundColor=default;verticalAlign=top;aspect=fixed;imageAspect=0;image=https://www.dicoding.com/blog/wp-content/uploads/2021/07/Simbol-flowchart-1024x685.jpg;" parent="WIyWlLk6GJQsqaUBKTNV-1" vertex="1">
          <mxGeometry x="-776" y="342" width="725.02" height="485" as="geometry" />
        </mxCell>
      </root>
    </mxGraphModel>
  </diagram>
  <diagram id="oChtA_CzxYi0sAgPElkT" name="flowchart-sistem (dosen)">
    <mxGraphModel dx="765" dy="456" grid="1" gridSize="10" guides="1" tooltips="1" connect="1" arrows="1" fold="1" page="1" pageScale="1" pageWidth="827" pageHeight="1169" math="0" shadow="1">
      <root>
        <mxCell id="0" />
        <mxCell id="1" parent="0" />
        <mxCell id="okB6jsi2A6huKM_yYNvb-5" style="edgeStyle=orthogonalEdgeStyle;rounded=0;orthogonalLoop=1;jettySize=auto;html=1;exitX=0.5;exitY=1;exitDx=0;exitDy=0;exitPerimeter=0;entryX=0.5;entryY=0;entryDx=0;entryDy=0;" edge="1" parent="1" source="vVKDUpbhbCzV0m4tQPch-1" target="okB6jsi2A6huKM_yYNvb-3">
          <mxGeometry relative="1" as="geometry" />
        </mxCell>
        <mxCell id="vVKDUpbhbCzV0m4tQPch-1" value="Mulai" style="strokeWidth=2;html=1;shape=mxgraph.flowchart.terminator;whiteSpace=wrap;fontSize=12;fontFamily=Helvetica;" vertex="1" parent="1">
          <mxGeometry x="218.91" y="210" width="116.67" height="70" as="geometry" />
        </mxCell>
        <mxCell id="okB6jsi2A6huKM_yYNvb-1" value="DOSEN" style="text;html=1;strokeColor=none;fillColor=none;align=center;verticalAlign=middle;whiteSpace=wrap;rounded=0;fontStyle=0;fontFamily=Helvetica;fontSize=12;" vertex="1" parent="1">
          <mxGeometry x="247.25" y="170" width="60" height="30" as="geometry" />
        </mxCell>
        <mxCell id="okB6jsi2A6huKM_yYNvb-6" style="edgeStyle=orthogonalEdgeStyle;rounded=0;orthogonalLoop=1;jettySize=auto;html=1;exitX=0.5;exitY=1;exitDx=0;exitDy=0;entryX=0.5;entryY=0;entryDx=0;entryDy=0;" edge="1" parent="1" source="okB6jsi2A6huKM_yYNvb-3" target="okB6jsi2A6huKM_yYNvb-4">
          <mxGeometry relative="1" as="geometry" />
        </mxCell>
        <mxCell id="okB6jsi2A6huKM_yYNvb-3" value="&lt;font style=&quot;font-size: 12px;&quot;&gt;Masukan source code&lt;/font&gt;" style="shape=parallelogram;html=1;strokeWidth=2;perimeter=parallelogramPerimeter;whiteSpace=wrap;rounded=1;arcSize=12;size=0.23;fontSize=12;fontStyle=0" vertex="1" parent="1">
          <mxGeometry x="172.25" y="330" width="210" height="60" as="geometry" />
        </mxCell>
        <mxCell id="okB6jsi2A6huKM_yYNvb-4" value="Cek source code" style="rounded=1;whiteSpace=wrap;html=1;absoluteArcSize=1;arcSize=14;strokeWidth=2;" vertex="1" parent="1">
          <mxGeometry x="227.25" y="440" width="100" height="100" as="geometry" />
        </mxCell>
        <mxCell id="okB6jsi2A6huKM_yYNvb-10" style="edgeStyle=orthogonalEdgeStyle;rounded=0;orthogonalLoop=1;jettySize=auto;html=1;exitX=1;exitY=0.5;exitDx=0;exitDy=0;exitPerimeter=0;" edge="1" parent="1" source="okB6jsi2A6huKM_yYNvb-7" target="okB6jsi2A6huKM_yYNvb-9">
          <mxGeometry relative="1" as="geometry" />
        </mxCell>
        <mxCell id="okB6jsi2A6huKM_yYNvb-11" value="Ya" style="edgeLabel;html=1;align=center;verticalAlign=middle;resizable=0;points=[];" vertex="1" connectable="0" parent="okB6jsi2A6huKM_yYNvb-10">
          <mxGeometry x="-0.2687" y="-2" relative="1" as="geometry">
            <mxPoint x="8" y="-3" as="offset" />
          </mxGeometry>
        </mxCell>
        <mxCell id="okB6jsi2A6huKM_yYNvb-7" value="? Error = 0" style="strokeWidth=2;html=1;shape=mxgraph.flowchart.decision;whiteSpace=wrap;" vertex="1" parent="1">
          <mxGeometry x="227.25" y="595" width="100" height="100" as="geometry" />
        </mxCell>
        <mxCell id="okB6jsi2A6huKM_yYNvb-8" style="edgeStyle=orthogonalEdgeStyle;rounded=0;orthogonalLoop=1;jettySize=auto;html=1;exitX=0.5;exitY=1;exitDx=0;exitDy=0;entryX=0.5;entryY=0;entryDx=0;entryDy=0;entryPerimeter=0;" edge="1" parent="1" source="okB6jsi2A6huKM_yYNvb-4" target="okB6jsi2A6huKM_yYNvb-7">
          <mxGeometry relative="1" as="geometry" />
        </mxCell>
        <mxCell id="txOde-DLerR58sezn6cH-5" style="edgeStyle=orthogonalEdgeStyle;rounded=0;orthogonalLoop=1;jettySize=auto;html=1;exitX=0.5;exitY=1;exitDx=0;exitDy=0;entryX=0.5;entryY=0;entryDx=0;entryDy=0;" edge="1" parent="1" source="okB6jsi2A6huKM_yYNvb-9" target="txOde-DLerR58sezn6cH-2">
          <mxGeometry relative="1" as="geometry" />
        </mxCell>
        <mxCell id="okB6jsi2A6huKM_yYNvb-9" value="&lt;font style=&quot;font-size: 12px;&quot;&gt;Masukan output&lt;br&gt;yang diharapkan&lt;/font&gt;" style="shape=parallelogram;html=1;strokeWidth=2;perimeter=parallelogramPerimeter;whiteSpace=wrap;rounded=1;arcSize=12;size=0.23;fontSize=12;fontStyle=0" vertex="1" parent="1">
          <mxGeometry x="438.91" y="615" width="210" height="60" as="geometry" />
        </mxCell>
        <mxCell id="okB6jsi2A6huKM_yYNvb-12" style="edgeStyle=orthogonalEdgeStyle;rounded=0;orthogonalLoop=1;jettySize=auto;html=1;exitX=0;exitY=0.5;exitDx=0;exitDy=0;exitPerimeter=0;entryX=0.127;entryY=0.333;entryDx=0;entryDy=0;entryPerimeter=0;" edge="1" parent="1" source="okB6jsi2A6huKM_yYNvb-7" target="okB6jsi2A6huKM_yYNvb-3">
          <mxGeometry relative="1" as="geometry">
            <Array as="points">
              <mxPoint x="148.91" y="645" />
              <mxPoint x="148.91" y="350" />
            </Array>
          </mxGeometry>
        </mxCell>
        <mxCell id="okB6jsi2A6huKM_yYNvb-13" value="Tidak" style="edgeLabel;html=1;align=center;verticalAlign=middle;resizable=0;points=[];" vertex="1" connectable="0" parent="okB6jsi2A6huKM_yYNvb-12">
          <mxGeometry x="-0.8047" y="-1" relative="1" as="geometry">
            <mxPoint as="offset" />
          </mxGeometry>
        </mxCell>
        <mxCell id="txOde-DLerR58sezn6cH-6" style="edgeStyle=orthogonalEdgeStyle;rounded=0;orthogonalLoop=1;jettySize=auto;html=1;exitX=0.5;exitY=1;exitDx=0;exitDy=0;" edge="1" parent="1" source="txOde-DLerR58sezn6cH-2" target="txOde-DLerR58sezn6cH-3">
          <mxGeometry relative="1" as="geometry" />
        </mxCell>
        <mxCell id="txOde-DLerR58sezn6cH-2" value="Cek source code" style="rounded=1;whiteSpace=wrap;html=1;absoluteArcSize=1;arcSize=14;strokeWidth=2;" vertex="1" parent="1">
          <mxGeometry x="493.91" y="730" width="100" height="100" as="geometry" />
        </mxCell>
        <mxCell id="txOde-DLerR58sezn6cH-7" style="edgeStyle=orthogonalEdgeStyle;rounded=0;orthogonalLoop=1;jettySize=auto;html=1;exitX=1;exitY=0.5;exitDx=0;exitDy=0;exitPerimeter=0;entryX=1;entryY=0.5;entryDx=0;entryDy=0;" edge="1" parent="1" source="txOde-DLerR58sezn6cH-3" target="okB6jsi2A6huKM_yYNvb-9">
          <mxGeometry relative="1" as="geometry">
            <Array as="points">
              <mxPoint x="678.91" y="950" />
              <mxPoint x="678.91" y="645" />
            </Array>
          </mxGeometry>
        </mxCell>
        <mxCell id="-XAZ5vR0QjlqD13yJp0A-2" value="Tidak" style="edgeLabel;html=1;align=center;verticalAlign=middle;resizable=0;points=[];" vertex="1" connectable="0" parent="txOde-DLerR58sezn6cH-7">
          <mxGeometry x="-0.8231" relative="1" as="geometry">
            <mxPoint as="offset" />
          </mxGeometry>
        </mxCell>
        <mxCell id="txOde-DLerR58sezn6cH-11" style="edgeStyle=orthogonalEdgeStyle;rounded=0;orthogonalLoop=1;jettySize=auto;html=1;exitX=0;exitY=0.5;exitDx=0;exitDy=0;exitPerimeter=0;" edge="1" parent="1" source="txOde-DLerR58sezn6cH-3" target="txOde-DLerR58sezn6cH-10">
          <mxGeometry relative="1" as="geometry" />
        </mxCell>
        <mxCell id="-XAZ5vR0QjlqD13yJp0A-3" value="Ya" style="edgeLabel;html=1;align=center;verticalAlign=middle;resizable=0;points=[];" vertex="1" connectable="0" parent="txOde-DLerR58sezn6cH-11">
          <mxGeometry x="-0.1117" y="1" relative="1" as="geometry">
            <mxPoint as="offset" />
          </mxGeometry>
        </mxCell>
        <mxCell id="txOde-DLerR58sezn6cH-3" value="? Error = 0" style="strokeWidth=2;html=1;shape=mxgraph.flowchart.decision;whiteSpace=wrap;" vertex="1" parent="1">
          <mxGeometry x="493.91" y="900" width="100" height="100" as="geometry" />
        </mxCell>
        <mxCell id="txOde-DLerR58sezn6cH-15" style="edgeStyle=orthogonalEdgeStyle;rounded=0;orthogonalLoop=1;jettySize=auto;html=1;exitX=0;exitY=0.5;exitDx=0;exitDy=0;exitPerimeter=0;" edge="1" parent="1" source="txOde-DLerR58sezn6cH-9">
          <mxGeometry relative="1" as="geometry">
            <mxPoint x="233.91999999999996" y="760" as="targetPoint" />
          </mxGeometry>
        </mxCell>
        <mxCell id="txOde-DLerR58sezn6cH-9" value="DB" style="strokeWidth=2;html=1;shape=mxgraph.flowchart.database;whiteSpace=wrap;" vertex="1" parent="1">
          <mxGeometry x="275.58000000000004" y="730" width="60" height="60" as="geometry" />
        </mxCell>
        <mxCell id="l7SvW1bJ_BT2390N4d2r-2" style="edgeStyle=orthogonalEdgeStyle;rounded=0;orthogonalLoop=1;jettySize=auto;html=1;exitX=0.5;exitY=0;exitDx=0;exitDy=0;entryX=0.5;entryY=1;entryDx=0;entryDy=0;" edge="1" parent="1" source="txOde-DLerR58sezn6cH-10" target="l7SvW1bJ_BT2390N4d2r-1">
          <mxGeometry relative="1" as="geometry" />
        </mxCell>
        <mxCell id="txOde-DLerR58sezn6cH-10" value="Submit" style="rounded=1;whiteSpace=wrap;html=1;absoluteArcSize=1;arcSize=14;strokeWidth=2;" vertex="1" parent="1">
          <mxGeometry x="358.91" y="915" width="80" height="70" as="geometry" />
        </mxCell>
        <mxCell id="txOde-DLerR58sezn6cH-16" value="API" style="rounded=1;whiteSpace=wrap;html=1;absoluteArcSize=1;arcSize=14;strokeWidth=2;" vertex="1" parent="1">
          <mxGeometry x="163.92000000000007" y="730" width="70" height="60" as="geometry" />
        </mxCell>
        <mxCell id="2y-Lb-zf4HsItSa_NAW9-1" value="Selesai" style="strokeWidth=2;html=1;shape=mxgraph.flowchart.terminator;whiteSpace=wrap;" vertex="1" parent="1">
          <mxGeometry x="63.92" y="840" width="100" height="60" as="geometry" />
        </mxCell>
        <mxCell id="2y-Lb-zf4HsItSa_NAW9-2" style="edgeStyle=orthogonalEdgeStyle;rounded=0;orthogonalLoop=1;jettySize=auto;html=1;exitX=0.5;exitY=1;exitDx=0;exitDy=0;entryX=1;entryY=0.5;entryDx=0;entryDy=0;entryPerimeter=0;" edge="1" parent="1" source="txOde-DLerR58sezn6cH-16" target="2y-Lb-zf4HsItSa_NAW9-1">
          <mxGeometry relative="1" as="geometry" />
        </mxCell>
        <mxCell id="l7SvW1bJ_BT2390N4d2r-1" value="Create Token Akses" style="rounded=1;whiteSpace=wrap;html=1;absoluteArcSize=1;arcSize=14;strokeWidth=2;" vertex="1" parent="1">
          <mxGeometry x="347.23" y="810" width="103.37" height="70" as="geometry" />
        </mxCell>
        <mxCell id="l7SvW1bJ_BT2390N4d2r-3" style="edgeStyle=orthogonalEdgeStyle;rounded=0;orthogonalLoop=1;jettySize=auto;html=1;exitX=0.5;exitY=0;exitDx=0;exitDy=0;entryX=1;entryY=0.5;entryDx=0;entryDy=0;entryPerimeter=0;" edge="1" parent="1" source="l7SvW1bJ_BT2390N4d2r-1" target="txOde-DLerR58sezn6cH-9">
          <mxGeometry relative="1" as="geometry" />
        </mxCell>
      </root>
    </mxGraphModel>
  </diagram>
  <diagram id="f3Jcj3KbwDVVUezRQ0M9" name="flowchart-sistem (mahasiswa)">
    <mxGraphModel dx="880" dy="524" grid="1" gridSize="10" guides="1" tooltips="1" connect="1" arrows="1" fold="1" page="1" pageScale="1" pageWidth="827" pageHeight="1169" math="0" shadow="1">
      <root>
        <mxCell id="0" />
        <mxCell id="1" parent="0" />
        <mxCell id="dMSCbO-tHG26wuL5tODo-1" value="MAHASISWA" style="text;html=1;strokeColor=none;fillColor=none;align=center;verticalAlign=middle;whiteSpace=wrap;rounded=0;" vertex="1" parent="1">
          <mxGeometry x="380" y="260" width="60" height="30" as="geometry" />
        </mxCell>
        <mxCell id="PXgJoJkQ0mj63U5SDDC2-2" style="edgeStyle=orthogonalEdgeStyle;rounded=0;orthogonalLoop=1;jettySize=auto;html=1;exitX=0.5;exitY=1;exitDx=0;exitDy=0;exitPerimeter=0;" edge="1" parent="1" source="L7iedvJvtw0akwgSohHK-1" target="JK4faY7XVGKS2BoLbveH-1">
          <mxGeometry relative="1" as="geometry" />
        </mxCell>
        <mxCell id="L7iedvJvtw0akwgSohHK-1" value="Mulai" style="strokeWidth=2;html=1;shape=mxgraph.flowchart.terminator;whiteSpace=wrap;" vertex="1" parent="1">
          <mxGeometry x="360" y="310" width="100" height="60" as="geometry" />
        </mxCell>
        <mxCell id="JK4faY7XVGKS2BoLbveH-1" value="Masukan Akses Token" style="shape=parallelogram;html=1;strokeWidth=2;perimeter=parallelogramPerimeter;whiteSpace=wrap;rounded=1;arcSize=12;size=0.23;" vertex="1" parent="1">
          <mxGeometry x="310" y="420" width="200" height="60" as="geometry" />
        </mxCell>
        <mxCell id="PXgJoJkQ0mj63U5SDDC2-4" style="edgeStyle=orthogonalEdgeStyle;rounded=0;orthogonalLoop=1;jettySize=auto;html=1;exitX=0;exitY=0.5;exitDx=0;exitDy=0;exitPerimeter=0;entryX=0;entryY=0.5;entryDx=0;entryDy=0;" edge="1" parent="1" source="PXgJoJkQ0mj63U5SDDC2-1" target="JK4faY7XVGKS2BoLbveH-1">
          <mxGeometry relative="1" as="geometry">
            <Array as="points">
              <mxPoint x="280" y="580" />
              <mxPoint x="280" y="450" />
            </Array>
          </mxGeometry>
        </mxCell>
        <mxCell id="PXgJoJkQ0mj63U5SDDC2-5" value="Tidak" style="edgeLabel;html=1;align=center;verticalAlign=middle;resizable=0;points=[];" vertex="1" connectable="0" parent="PXgJoJkQ0mj63U5SDDC2-4">
          <mxGeometry x="-0.6578" y="1" relative="1" as="geometry">
            <mxPoint y="-2" as="offset" />
          </mxGeometry>
        </mxCell>
        <mxCell id="mjKbEpLGJcm4BsJufjVN-2" style="edgeStyle=orthogonalEdgeStyle;rounded=0;orthogonalLoop=1;jettySize=auto;html=1;exitX=1;exitY=0.5;exitDx=0;exitDy=0;exitPerimeter=0;entryX=0;entryY=0.5;entryDx=0;entryDy=0;" edge="1" parent="1" source="PXgJoJkQ0mj63U5SDDC2-1" target="PXgJoJkQ0mj63U5SDDC2-6">
          <mxGeometry relative="1" as="geometry" />
        </mxCell>
        <mxCell id="PXgJoJkQ0mj63U5SDDC2-1" value="Masuk ?" style="strokeWidth=2;html=1;shape=mxgraph.flowchart.decision;whiteSpace=wrap;" vertex="1" parent="1">
          <mxGeometry x="360" y="530" width="100" height="100" as="geometry" />
        </mxCell>
        <mxCell id="PXgJoJkQ0mj63U5SDDC2-3" style="edgeStyle=orthogonalEdgeStyle;rounded=0;orthogonalLoop=1;jettySize=auto;html=1;exitX=0.5;exitY=1;exitDx=0;exitDy=0;entryX=0.5;entryY=0;entryDx=0;entryDy=0;entryPerimeter=0;" edge="1" parent="1" source="JK4faY7XVGKS2BoLbveH-1" target="PXgJoJkQ0mj63U5SDDC2-1">
          <mxGeometry relative="1" as="geometry" />
        </mxCell>
        <mxCell id="mjKbEpLGJcm4BsJufjVN-3" style="edgeStyle=orthogonalEdgeStyle;rounded=0;orthogonalLoop=1;jettySize=auto;html=1;exitX=0.5;exitY=1;exitDx=0;exitDy=0;entryX=0.5;entryY=0;entryDx=0;entryDy=0;" edge="1" parent="1" source="PXgJoJkQ0mj63U5SDDC2-6" target="PXgJoJkQ0mj63U5SDDC2-7">
          <mxGeometry relative="1" as="geometry" />
        </mxCell>
        <mxCell id="PXgJoJkQ0mj63U5SDDC2-6" value="Input Source Code" style="shape=parallelogram;html=1;strokeWidth=2;perimeter=parallelogramPerimeter;whiteSpace=wrap;rounded=1;arcSize=12;size=0.23;" vertex="1" parent="1">
          <mxGeometry x="520" y="550" width="160" height="60" as="geometry" />
        </mxCell>
        <mxCell id="PXgJoJkQ0mj63U5SDDC2-7" value="Proses Penilaian Otomatis" style="rounded=1;whiteSpace=wrap;html=1;absoluteArcSize=1;arcSize=14;strokeWidth=2;" vertex="1" parent="1">
          <mxGeometry x="550" y="670" width="100" height="100" as="geometry" />
        </mxCell>
        <mxCell id="mjKbEpLGJcm4BsJufjVN-5" style="edgeStyle=orthogonalEdgeStyle;rounded=0;orthogonalLoop=1;jettySize=auto;html=1;exitX=0;exitY=0.5;exitDx=0;exitDy=0;exitPerimeter=0;entryX=1;entryY=0.5;entryDx=0;entryDy=0;" edge="1" parent="1" source="PXgJoJkQ0mj63U5SDDC2-8" target="mjKbEpLGJcm4BsJufjVN-1">
          <mxGeometry relative="1" as="geometry" />
        </mxCell>
        <mxCell id="PXgJoJkQ0mj63U5SDDC2-8" value="DB" style="strokeWidth=2;html=1;shape=mxgraph.flowchart.database;whiteSpace=wrap;" vertex="1" parent="1">
          <mxGeometry x="430" y="690" width="60" height="60" as="geometry" />
        </mxCell>
        <mxCell id="mjKbEpLGJcm4BsJufjVN-1" value="API" style="rounded=1;whiteSpace=wrap;html=1;absoluteArcSize=1;arcSize=14;strokeWidth=2;" vertex="1" parent="1">
          <mxGeometry x="299" y="690" width="70" height="60" as="geometry" />
        </mxCell>
        <mxCell id="mjKbEpLGJcm4BsJufjVN-4" style="edgeStyle=orthogonalEdgeStyle;rounded=0;orthogonalLoop=1;jettySize=auto;html=1;exitX=0;exitY=0.5;exitDx=0;exitDy=0;entryX=1;entryY=0.5;entryDx=0;entryDy=0;entryPerimeter=0;" edge="1" parent="1" source="PXgJoJkQ0mj63U5SDDC2-7" target="PXgJoJkQ0mj63U5SDDC2-8">
          <mxGeometry relative="1" as="geometry" />
        </mxCell>
        <mxCell id="mjKbEpLGJcm4BsJufjVN-6" value="Selesai" style="strokeWidth=2;html=1;shape=mxgraph.flowchart.terminator;whiteSpace=wrap;" vertex="1" parent="1">
          <mxGeometry x="284" y="810" width="100" height="60" as="geometry" />
        </mxCell>
        <mxCell id="mjKbEpLGJcm4BsJufjVN-7" style="edgeStyle=orthogonalEdgeStyle;rounded=0;orthogonalLoop=1;jettySize=auto;html=1;exitX=0.5;exitY=1;exitDx=0;exitDy=0;entryX=0.5;entryY=0;entryDx=0;entryDy=0;entryPerimeter=0;" edge="1" parent="1" source="mjKbEpLGJcm4BsJufjVN-1" target="mjKbEpLGJcm4BsJufjVN-6">
          <mxGeometry relative="1" as="geometry" />
        </mxCell>
      </root>
    </mxGraphModel>
  </diagram>
  <diagram id="rker1mvSwaRgTq26dJB5" name="Waterfall">
    <mxGraphModel dx="880" dy="524" grid="1" gridSize="10" guides="1" tooltips="1" connect="1" arrows="1" fold="1" page="1" pageScale="1" pageWidth="827" pageHeight="1169" math="0" shadow="0">
      <root>
        <mxCell id="0" />
        <mxCell id="1" parent="0" />
        <mxCell id="YX4mvqh22hVplMgtRhO9-6" style="edgeStyle=orthogonalEdgeStyle;rounded=0;orthogonalLoop=1;jettySize=auto;html=1;exitX=1;exitY=0.5;exitDx=0;exitDy=0;entryX=0.5;entryY=0;entryDx=0;entryDy=0;" edge="1" parent="1" source="YX4mvqh22hVplMgtRhO9-2" target="YX4mvqh22hVplMgtRhO9-3">
          <mxGeometry relative="1" as="geometry" />
        </mxCell>
        <mxCell id="YX4mvqh22hVplMgtRhO9-2" value="Analisis" style="rounded=1;whiteSpace=wrap;html=1;" vertex="1" parent="1">
          <mxGeometry x="120" y="120" width="110" height="60" as="geometry" />
        </mxCell>
        <mxCell id="YX4mvqh22hVplMgtRhO9-7" style="edgeStyle=orthogonalEdgeStyle;rounded=0;orthogonalLoop=1;jettySize=auto;html=1;exitX=1;exitY=0.5;exitDx=0;exitDy=0;entryX=0.5;entryY=0;entryDx=0;entryDy=0;" edge="1" parent="1" source="YX4mvqh22hVplMgtRhO9-3" target="YX4mvqh22hVplMgtRhO9-4">
          <mxGeometry relative="1" as="geometry" />
        </mxCell>
        <mxCell id="YX4mvqh22hVplMgtRhO9-13" style="edgeStyle=orthogonalEdgeStyle;rounded=0;orthogonalLoop=1;jettySize=auto;html=1;exitX=0;exitY=0.5;exitDx=0;exitDy=0;entryX=0.5;entryY=1;entryDx=0;entryDy=0;dashed=1;" edge="1" parent="1" source="YX4mvqh22hVplMgtRhO9-3" target="YX4mvqh22hVplMgtRhO9-2">
          <mxGeometry relative="1" as="geometry" />
        </mxCell>
        <mxCell id="YX4mvqh22hVplMgtRhO9-3" value="Perancangan" style="rounded=1;whiteSpace=wrap;html=1;" vertex="1" parent="1">
          <mxGeometry x="240" y="200" width="110" height="60" as="geometry" />
        </mxCell>
        <mxCell id="YX4mvqh22hVplMgtRhO9-12" style="edgeStyle=orthogonalEdgeStyle;rounded=0;orthogonalLoop=1;jettySize=auto;html=1;exitX=0;exitY=0.5;exitDx=0;exitDy=0;entryX=0.5;entryY=1;entryDx=0;entryDy=0;dashed=1;" edge="1" parent="1" source="YX4mvqh22hVplMgtRhO9-4" target="YX4mvqh22hVplMgtRhO9-2">
          <mxGeometry relative="1" as="geometry" />
        </mxCell>
        <mxCell id="YX4mvqh22hVplMgtRhO9-4" value="Implementasi" style="rounded=1;whiteSpace=wrap;html=1;" vertex="1" parent="1">
          <mxGeometry x="360" y="280" width="110" height="60" as="geometry" />
        </mxCell>
        <mxCell id="YX4mvqh22hVplMgtRhO9-9" style="edgeStyle=orthogonalEdgeStyle;rounded=0;orthogonalLoop=1;jettySize=auto;html=1;exitX=0;exitY=0.5;exitDx=0;exitDy=0;entryX=0.5;entryY=1;entryDx=0;entryDy=0;dashed=1;" edge="1" parent="1" source="YX4mvqh22hVplMgtRhO9-5" target="YX4mvqh22hVplMgtRhO9-2">
          <mxGeometry relative="1" as="geometry" />
        </mxCell>
        <mxCell id="YX4mvqh22hVplMgtRhO9-10" style="edgeStyle=orthogonalEdgeStyle;rounded=0;orthogonalLoop=1;jettySize=auto;html=1;exitX=0;exitY=0.5;exitDx=0;exitDy=0;entryX=0.5;entryY=1;entryDx=0;entryDy=0;dashed=1;" edge="1" parent="1" source="YX4mvqh22hVplMgtRhO9-5" target="YX4mvqh22hVplMgtRhO9-3">
          <mxGeometry relative="1" as="geometry" />
        </mxCell>
        <mxCell id="YX4mvqh22hVplMgtRhO9-11" style="edgeStyle=orthogonalEdgeStyle;rounded=0;orthogonalLoop=1;jettySize=auto;html=1;exitX=0;exitY=0.5;exitDx=0;exitDy=0;entryX=0.5;entryY=1;entryDx=0;entryDy=0;dashed=1;" edge="1" parent="1" source="YX4mvqh22hVplMgtRhO9-5" target="YX4mvqh22hVplMgtRhO9-4">
          <mxGeometry relative="1" as="geometry" />
        </mxCell>
        <mxCell id="YX4mvqh22hVplMgtRhO9-5" value="Pengujian" style="rounded=1;whiteSpace=wrap;html=1;" vertex="1" parent="1">
          <mxGeometry x="480" y="360" width="110" height="60" as="geometry" />
        </mxCell>
        <mxCell id="YX4mvqh22hVplMgtRhO9-8" style="edgeStyle=orthogonalEdgeStyle;rounded=0;orthogonalLoop=1;jettySize=auto;html=1;exitX=1;exitY=0.5;exitDx=0;exitDy=0;entryX=0.5;entryY=0;entryDx=0;entryDy=0;" edge="1" parent="1" source="YX4mvqh22hVplMgtRhO9-4" target="YX4mvqh22hVplMgtRhO9-5">
          <mxGeometry relative="1" as="geometry" />
        </mxCell>
      </root>
    </mxGraphModel>
  </diagram>
  <diagram id="-fhaYVvEGZIhJW7gPpQZ" name="Blok Diagram Sistem">
    <mxGraphModel dx="733" dy="437" grid="1" gridSize="10" guides="1" tooltips="1" connect="1" arrows="1" fold="1" page="1" pageScale="1" pageWidth="827" pageHeight="1169" math="0" shadow="0">
      <root>
        <mxCell id="0" />
        <mxCell id="1" parent="0" />
        <UserObject label="Sistem" treeRoot="1" id="GiKySuiL1xT9AotWCRkq-2">
          <mxCell style="whiteSpace=wrap;html=1;align=left;treeFolding=1;treeMoving=1;newEdgeStyle={&quot;edgeStyle&quot;:&quot;elbowEdgeStyle&quot;,&quot;startArrow&quot;:&quot;none&quot;,&quot;endArrow&quot;:&quot;none&quot;};verticalAlign=top;spacingLeft=15;" vertex="1" parent="1">
            <mxGeometry x="200" y="40" width="290" height="440" as="geometry" />
          </mxCell>
        </UserObject>
        <mxCell id="GiKySuiL1xT9AotWCRkq-1" value="Semua Case&lt;br&gt;Tersimpan Otomatis" style="shape=datastore;whiteSpace=wrap;html=1;shadow=1;" vertex="1" parent="1">
          <mxGeometry x="520" y="200" width="160" height="150" as="geometry" />
        </mxCell>
        <mxCell id="GiKySuiL1xT9AotWCRkq-26" style="edgeStyle=elbowEdgeStyle;rounded=0;orthogonalLoop=1;jettySize=auto;html=1;startArrow=none;endArrow=none;exitX=1;exitY=0.5;exitDx=0;exitDy=0;entryX=0;entryY=0.5;entryDx=0;entryDy=0;" edge="1" parent="1" source="GiKySuiL1xT9AotWCRkq-3" target="GiKySuiL1xT9AotWCRkq-1">
          <mxGeometry relative="1" as="geometry" />
        </mxCell>
        <UserObject label="Analisis" treeRoot="1" id="GiKySuiL1xT9AotWCRkq-3">
          <mxCell style="whiteSpace=wrap;html=1;align=left;treeFolding=1;treeMoving=1;newEdgeStyle={&quot;edgeStyle&quot;:&quot;elbowEdgeStyle&quot;,&quot;startArrow&quot;:&quot;none&quot;,&quot;endArrow&quot;:&quot;none&quot;};verticalAlign=top;spacingRight=0;spacingLeft=15;" vertex="1" parent="1">
            <mxGeometry x="210" y="70" width="170" height="160" as="geometry" />
          </mxCell>
        </UserObject>
        <mxCell id="GiKySuiL1xT9AotWCRkq-13" value="" style="endArrow=classic;html=1;rounded=0;entryX=0;entryY=0.5;entryDx=0;entryDy=0;" edge="1" parent="1" target="GiKySuiL1xT9AotWCRkq-4">
          <mxGeometry width="50" height="50" relative="1" as="geometry">
            <mxPoint x="40" y="110" as="sourcePoint" />
            <mxPoint x="200" y="110" as="targetPoint" />
          </mxGeometry>
        </mxCell>
        <mxCell id="GiKySuiL1xT9AotWCRkq-14" value="Masukan Source Code&lt;br&gt;atau Jawaban" style="edgeLabel;html=1;align=center;verticalAlign=middle;resizable=0;points=[];" vertex="1" connectable="0" parent="GiKySuiL1xT9AotWCRkq-13">
          <mxGeometry x="-0.2354" y="-2" relative="1" as="geometry">
            <mxPoint x="2" y="-2" as="offset" />
          </mxGeometry>
        </mxCell>
        <mxCell id="GiKySuiL1xT9AotWCRkq-16" style="edgeStyle=orthogonalEdgeStyle;rounded=0;orthogonalLoop=1;jettySize=auto;html=1;exitX=0.5;exitY=1;exitDx=0;exitDy=0;entryX=0.5;entryY=0;entryDx=0;entryDy=0;" edge="1" parent="1" source="GiKySuiL1xT9AotWCRkq-4" target="GiKySuiL1xT9AotWCRkq-6">
          <mxGeometry relative="1" as="geometry" />
        </mxCell>
        <mxCell id="GiKySuiL1xT9AotWCRkq-17" value="Source Code&lt;br&gt;Melakukan Penilaian Lanjutan" style="edgeLabel;html=1;align=center;verticalAlign=middle;resizable=0;points=[];" vertex="1" connectable="0" parent="GiKySuiL1xT9AotWCRkq-16">
          <mxGeometry x="-0.1128" y="-1" relative="1" as="geometry">
            <mxPoint x="1" y="-4" as="offset" />
          </mxGeometry>
        </mxCell>
        <mxCell id="GiKySuiL1xT9AotWCRkq-4" value="White Box" style="rounded=0;whiteSpace=wrap;html=1;" vertex="1" parent="1">
          <mxGeometry x="245" y="95" width="100" height="30" as="geometry" />
        </mxCell>
        <mxCell id="GiKySuiL1xT9AotWCRkq-6" value="Black Box" style="rounded=0;whiteSpace=wrap;html=1;" vertex="1" parent="1">
          <mxGeometry x="245" y="190" width="100" height="30" as="geometry" />
        </mxCell>
        <mxCell id="GiKySuiL1xT9AotWCRkq-27" style="edgeStyle=elbowEdgeStyle;rounded=0;orthogonalLoop=1;jettySize=auto;html=1;startArrow=none;endArrow=none;exitX=1;exitY=0.5;exitDx=0;exitDy=0;" edge="1" parent="1" source="GiKySuiL1xT9AotWCRkq-9">
          <mxGeometry relative="1" as="geometry">
            <mxPoint x="520" y="290" as="targetPoint" />
          </mxGeometry>
        </mxCell>
        <UserObject label="Penerapan" treeRoot="1" id="GiKySuiL1xT9AotWCRkq-9">
          <mxCell style="whiteSpace=wrap;html=1;align=left;treeFolding=1;treeMoving=1;newEdgeStyle={&quot;edgeStyle&quot;:&quot;elbowEdgeStyle&quot;,&quot;startArrow&quot;:&quot;none&quot;,&quot;endArrow&quot;:&quot;none&quot;};verticalAlign=top;spacingRight=0;spacingLeft=15;" vertex="1" parent="1">
            <mxGeometry x="210" y="270" width="170" height="200" as="geometry" />
          </mxCell>
        </UserObject>
        <mxCell id="GiKySuiL1xT9AotWCRkq-22" style="edgeStyle=orthogonalEdgeStyle;rounded=0;orthogonalLoop=1;jettySize=auto;html=1;exitX=0.5;exitY=1;exitDx=0;exitDy=0;" edge="1" parent="1" source="GiKySuiL1xT9AotWCRkq-7" target="GiKySuiL1xT9AotWCRkq-8">
          <mxGeometry relative="1" as="geometry" />
        </mxCell>
        <mxCell id="GiKySuiL1xT9AotWCRkq-23" value="Penilain Dengan Bantuan&lt;br&gt;HTTP API" style="edgeLabel;html=1;align=center;verticalAlign=middle;resizable=0;points=[];" vertex="1" connectable="0" parent="GiKySuiL1xT9AotWCRkq-22">
          <mxGeometry x="-0.1222" relative="1" as="geometry">
            <mxPoint as="offset" />
          </mxGeometry>
        </mxCell>
        <mxCell id="GiKySuiL1xT9AotWCRkq-7" value="Jest" style="rounded=0;whiteSpace=wrap;html=1;" vertex="1" parent="1">
          <mxGeometry x="245" y="310" width="100" height="30" as="geometry" />
        </mxCell>
        <mxCell id="GiKySuiL1xT9AotWCRkq-24" style="edgeStyle=orthogonalEdgeStyle;rounded=0;orthogonalLoop=1;jettySize=auto;html=1;exitX=0;exitY=0.5;exitDx=0;exitDy=0;" edge="1" parent="1" source="GiKySuiL1xT9AotWCRkq-8">
          <mxGeometry relative="1" as="geometry">
            <mxPoint x="10" y="415" as="targetPoint" />
          </mxGeometry>
        </mxCell>
        <mxCell id="GiKySuiL1xT9AotWCRkq-25" value="Menampilkan Hasil&lt;br&gt;Penilaian Source Code" style="edgeLabel;html=1;align=center;verticalAlign=middle;resizable=0;points=[];" vertex="1" connectable="0" parent="GiKySuiL1xT9AotWCRkq-24">
          <mxGeometry x="0.388" relative="1" as="geometry">
            <mxPoint x="28" as="offset" />
          </mxGeometry>
        </mxCell>
        <mxCell id="GiKySuiL1xT9AotWCRkq-8" value="Supertest" style="rounded=0;whiteSpace=wrap;html=1;" vertex="1" parent="1">
          <mxGeometry x="245" y="400" width="100" height="30" as="geometry" />
        </mxCell>
        <mxCell id="GiKySuiL1xT9AotWCRkq-20" style="edgeStyle=orthogonalEdgeStyle;rounded=0;orthogonalLoop=1;jettySize=auto;html=1;exitX=0.5;exitY=1;exitDx=0;exitDy=0;" edge="1" parent="1" source="GiKySuiL1xT9AotWCRkq-6" target="GiKySuiL1xT9AotWCRkq-7">
          <mxGeometry relative="1" as="geometry" />
        </mxCell>
        <mxCell id="GiKySuiL1xT9AotWCRkq-21" value="Melakukan Penilaian Dengan&lt;br&gt;Bantuan Library" style="edgeLabel;html=1;align=center;verticalAlign=middle;resizable=0;points=[];" vertex="1" connectable="0" parent="GiKySuiL1xT9AotWCRkq-20">
          <mxGeometry x="-0.2667" relative="1" as="geometry">
            <mxPoint y="-3" as="offset" />
          </mxGeometry>
        </mxCell>
      </root>
    </mxGraphModel>
  </diagram>
</mxfile>
